<svg xmlns="http://www.w3.org/2000/svg" xmlns:xlink="http://www.w3.org/1999/xlink" version="1.1" width="256" height="256" viewBox="0 0 256 256" xml:space="preserve">
<desc>Created with Fabric.js 1.7.22</desc>
<defs>
</defs>
<g transform="translate(128 128) scale(0.72 0.72)" style="">
	<g style="stroke: none; stroke-width: 0; stroke-dasharray: none; stroke-linecap: butt; stroke-linejoin: miter; stroke-miterlimit: 10; fill: none; fill-rule: nonzero; opacity: 1;" transform="translate(-175.05 -175.05000000000004) scale(3.89 3.89)" >
	<path d="M 49.701 90 h -9.403 c -7.732 0 -14.023 -6.291 -14.023 -14.023 V 39.132 c 0 -1.08 0.876 -1.957 1.957 -1.957 h 33.537 c 1.08 0 1.957 0.876 1.957 1.957 v 36.844 C 63.725 83.709 57.434 90 49.701 90 z M 30.188 41.089 v 34.888 c 0 5.574 4.535 10.11 10.11 10.11 h 9.403 c 5.575 0 10.111 -4.536 10.111 -10.11 V 41.089 H 30.188 z" style="stroke: none; stroke-width: 1; stroke-dasharray: none; stroke-linecap: butt; stroke-linejoin: miter; stroke-miterlimit: 10; fill: rgb(0,0,0); fill-rule: nonzero; opacity: 1;" transform=" matrix(1 0 0 1 0 0) " stroke-linecap="round" />
	<path d="M 78.576 76.524 h -8.188 c -1.08 0 -1.957 -0.876 -1.957 -1.957 s 0.876 -1.957 1.957 -1.957 h 6.232 V 29.344 c 0 -0.654 0.321 -1.234 0.815 -1.589 L 45 4.369 L 12.566 27.755 c 0.493 0.355 0.814 0.934 0.814 1.589 v 43.267 h 6.231 c 1.08 0 1.957 0.876 1.957 1.957 s -0.876 1.957 -1.957 1.957 h -8.188 c -1.08 0 -1.957 -0.876 -1.957 -1.957 V 31.301 h -2.45 c -0.849 0 -1.601 -0.547 -1.862 -1.355 c -0.261 -0.808 0.029 -1.692 0.717 -2.188 L 43.855 0.37 c 0.684 -0.493 1.605 -0.493 2.289 0 l 37.983 27.387 c 0.689 0.496 0.978 1.38 0.717 2.188 c -0.261 0.808 -1.013 1.355 -1.862 1.355 h -2.45 v 43.267 C 80.532 75.648 79.656 76.524 78.576 76.524 z" style="stroke: none; stroke-width: 1; stroke-dasharray: none; stroke-linecap: butt; stroke-linejoin: miter; stroke-miterlimit: 10; fill: rgb(0,0,0); fill-rule: nonzero; opacity: 1;" transform=" matrix(1 0 0 1 0 0) " stroke-linecap="round" />
	<path d="M 45 62.128 c -5.03 0 -9.122 -4.092 -9.122 -9.122 S 39.97 43.885 45 43.885 s 9.122 4.092 9.122 9.122 S 50.03 62.128 45 62.128 z M 45 47.797 c -2.872 0 -5.209 2.337 -5.209 5.209 c 0 2.872 2.337 5.208 5.209 5.208 c 2.872 0 5.208 -2.337 5.208 -5.208 C 50.208 50.134 47.871 47.797 45 47.797 z" style="stroke: none; stroke-width: 1; stroke-dasharray: none; stroke-linecap: butt; stroke-linejoin: miter; stroke-miterlimit: 10; fill: rgb(0,0,0); fill-rule: nonzero; opacity: 1;" transform=" matrix(1 0 0 1 0 0) " stroke-linecap="round" />
	<path d="M 42.203 71.424 h -4.369 c -1.08 0 -1.957 -0.876 -1.957 -1.957 c 0 -1.08 0.876 -1.957 1.957 -1.957 h 4.369 c 1.08 0 1.957 0.876 1.957 1.957 C 44.16 70.548 43.284 71.424 42.203 71.424 z" style="stroke: none; stroke-width: 1; stroke-dasharray: none; stroke-linecap: butt; stroke-linejoin: miter; stroke-miterlimit: 10; fill: rgb(0,0,0); fill-rule: nonzero; opacity: 1;" transform=" matrix(1 0 0 1 0 0) " stroke-linecap="round" />
	<path d="M 52.165 71.424 h -4.369 c -1.08 0 -1.957 -0.876 -1.957 -1.957 c 0 -1.08 0.876 -1.957 1.957 -1.957 h 4.369 c 1.08 0 1.957 0.876 1.957 1.957 C 54.121 70.548 53.245 71.424 52.165 71.424 z" style="stroke: none; stroke-width: 1; stroke-dasharray: none; stroke-linecap: butt; stroke-linejoin: miter; stroke-miterlimit: 10; fill: rgb(0,0,0); fill-rule: nonzero; opacity: 1;" transform=" matrix(1 0 0 1 0 0) " stroke-linecap="round" />
	<path d="M 50.753 34.899 c -1.08 0 -1.957 -0.876 -1.957 -1.957 c 0 -2.094 -1.703 -3.796 -3.796 -3.796 c -2.093 0 -3.796 1.703 -3.796 3.796 c 0 1.08 -0.876 1.957 -1.957 1.957 s -1.957 -0.876 -1.957 -1.957 c 0 -4.251 3.458 -7.71 7.709 -7.71 c 4.251 0 7.71 3.458 7.71 7.71 C 52.709 34.023 51.833 34.899 50.753 34.899 z" style="stroke: none; stroke-width: 1; stroke-dasharray: none; stroke-linecap: butt; stroke-linejoin: miter; stroke-miterlimit: 10; fill: rgb(0,0,0); fill-rule: nonzero; opacity: 1;" transform=" matrix(1 0 0 1 0 0) " stroke-linecap="round" />
	<path d="M 58.163 35.027 c -1.08 0 -1.957 -0.876 -1.957 -1.957 c 0 -6.18 -5.028 -11.207 -11.207 -11.207 c -6.18 0 -11.207 5.027 -11.207 11.207 c 0 1.08 -0.876 1.957 -1.957 1.957 c -1.08 0 -1.957 -0.876 -1.957 -1.957 c 0 -8.337 6.783 -15.12 15.12 -15.12 s 15.12 6.783 15.12 15.12 C 60.12 34.151 59.244 35.027 58.163 35.027 z" style="stroke: none; stroke-width: 1; stroke-dasharray: none; stroke-linecap: butt; stroke-linejoin: miter; stroke-miterlimit: 10; fill: rgb(0,0,0); fill-rule: nonzero; opacity: 1;" transform=" matrix(1 0 0 1 0 0) " stroke-linecap="round" />
	<path d="M 42.203 77.394 h -4.369 c -1.08 0 -1.957 -0.876 -1.957 -1.957 s 0.876 -1.957 1.957 -1.957 h 4.369 c 1.08 0 1.957 0.876 1.957 1.957 S 43.284 77.394 42.203 77.394 z" style="stroke: none; stroke-width: 1; stroke-dasharray: none; stroke-linecap: butt; stroke-linejoin: miter; stroke-miterlimit: 10; fill: rgb(0,0,0); fill-rule: nonzero; opacity: 1;" transform=" matrix(1 0 0 1 0 0) " stroke-linecap="round" />
	<path d="M 52.165 77.394 h -4.369 c -1.08 0 -1.957 -0.876 -1.957 -1.957 s 0.876 -1.957 1.957 -1.957 h 4.369 c 1.08 0 1.957 0.876 1.957 1.957 S 53.245 77.394 52.165 77.394 z" style="stroke: none; stroke-width: 1; stroke-dasharray: none; stroke-linecap: butt; stroke-linejoin: miter; stroke-miterlimit: 10; fill: rgb(0,0,0); fill-rule: nonzero; opacity: 1;" transform=" matrix(1 0 0 1 0 0) " stroke-linecap="round" />
	<circle cx="45.002" cy="53.182" r="2.442" style="stroke: none; stroke-width: 1; stroke-dasharray: none; stroke-linecap: butt; stroke-linejoin: miter; stroke-miterlimit: 10; fill: rgb(0,0,0); fill-rule: nonzero; opacity: 1;" transform="  matrix(1 0 0 1 0 0) "/>
</g>
</g>
</svg>