<svg class="svg-icon" style="width: 1em;height: 1em;vertical-align: middle;fill: currentColor;overflow: hidden;" viewBox="0 0 1024 1024" version="1.1" xmlns="http://www.w3.org/2000/svg"><path d="M840.96 533.333333h-256a21.333333 21.333333 0 0 1-21.333333-21.333333 184.533333 184.533333 0 0 1 343.04-94.293333A76.373333 76.373333 0 0 1 840.96 533.333333z m-233.173333-42.666666h233.173333a33.28 33.28 0 0 0 29.226667-16.853334 33.706667 33.706667 0 0 0 0-34.346666 141.653333 141.653333 0 0 0-262.4 51.2zM276.053333 696.533333a185.6 185.6 0 0 1-158.506666-90.24A76.373333 76.373333 0 0 1 183.04 490.666667h256a21.333333 21.333333 0 0 1 21.333333 21.333333 184.746667 184.746667 0 0 1-184.32 184.533333zM183.04 533.333333a33.706667 33.706667 0 0 0-28.8 51.2A141.653333 141.653333 0 0 0 416.213333 533.333333z" fill="#5879FB" /><path d="M533.333333 460.586667h-21.333333a184.533333 184.533333 0 0 1-94.506667-343.04 76.373333 76.373333 0 0 1 77.226667 0A75.52 75.52 0 0 1 533.333333 183.04zM456.96 149.333333a34.986667 34.986667 0 0 0-17.493333 4.906667A141.866667 141.866667 0 0 0 490.666667 416.213333V183.04A33.92 33.92 0 0 0 456.96 149.333333zM567.04 917.333333a77.013333 77.013333 0 0 1-37.76-10.026666A75.52 75.52 0 0 1 490.666667 840.96v-277.333333h21.333333a184.533333 184.533333 0 0 1 94.293333 343.04 76.16 76.16 0 0 1-39.253333 10.666666zM533.333333 607.786667v233.173333a33.28 33.28 0 0 0 16.853334 29.226667 33.706667 33.706667 0 0 0 34.346666 0 141.653333 141.653333 0 0 0-51.2-262.4z" fill="#2FDDDC" /></svg>